# xmcd CD database file
#
# Track frame offsets:
#	150
#	18015
#	35108
#	50598
#	71134
#	90938
#	106864
#	122715
#	139219
#	158779
#	176636
#	193376
#	211422
#	226195
#	247641
#
# Disc length: 3498 seconds
#
# Revision: 0
# Processed by: cddbd v1.5.2PL0 Copyright (c) Steve Scherf et al.
# Submitted via: CDex 1.70beta2
#
DISCID=c80da80f
DTITLE=Adair, Beegie - Best of Beegie Adair - Jazz Romance
DYEAR=2016
DGENRE=Jazz
TTITLE0=At Last
TTITLE1=Moonglow
TTITLE2=Strangers In The Night
TTITLE3=As Time Goes By
TTITLE4=A Nightingale Sang In Berkeley Square
TTITLE5=Love Walked In
TTITLE6=I'm Getting Sentimental Over You
TTITLE7=It Had To Be You
TTITLE8=Young At Heart
TTITLE9=Dance With Me
TTITLE10=A Certain Smile
TTITLE11=Autumn Leaves
TTITLE12=They Say It's Wonderful
TTITLE13=Come Rain or Come Shine
TTITLE14=When I Fall In Love
EXTD=YEAR: 2016
EXTT0=
EXTT1=
EXTT2=
EXTT3=
EXTT4=
EXTT5=
EXTT6=
EXTT7=
EXTT8=
EXTT9=
EXTT10=
EXTT11=
EXTT12=
EXTT13=
EXTT14=
PLAYORDER=
